<svg width="34" height="34" viewBox="0 0 34 34" fill="none" xmlns="http://www.w3.org/2000/svg">
<g clip-path="url(#clip0_3_1920)">
<rect width="34" height="34" rx="17" fill="#0A0B09"/>
<path d="M13.6068 32.9712C13.6068 33.4233 13.0688 34.0239 12.2188 33.8672V34L23.1094 34.0019V33.7936C22.2466 33.9612 22.0346 33.4281 22.0346 32.9715C22.0346 32.4113 22.0558 30.5713 22.0558 28.2896C22.0558 26.6969 21.5118 25.6559 20.902 25.1289C24.6887 24.7066 28.6635 23.2632 28.6635 16.7073C28.6635 14.8437 28.0058 13.3206 26.9157 12.1268C27.091 11.6949 27.6743 9.9604 26.7468 7.61042C26.7468 7.61042 25.322 7.15168 22.0771 9.35982C20.7192 8.98104 19.2647 8.79218 17.8207 8.78475C16.3747 8.79245 14.9212 8.98104 13.5643 9.35982C10.3173 7.15168 8.88935 7.61042 8.88935 7.61042C7.96497 9.9604 8.54829 11.6949 8.7236 12.1268C7.6356 13.3206 6.97366 14.8437 6.97366 16.7073C6.97366 23.2472 10.9421 24.7108 14.7172 25.1417C14.2316 25.5683 13.7917 26.3205 13.6377 27.4234C12.6687 27.8609 10.2068 28.6139 8.6896 26.0057C8.6896 26.0057 7.79179 24.3674 6.08647 24.2468C6.08647 24.2468 4.42579 24.2253 5.9696 25.2846C5.9696 25.2846 7.08416 25.8094 7.8566 27.7807C7.8566 27.7807 8.85428 31.1002 13.5835 30.0687C13.592 31.4928 13.6068 32.5659 13.6068 32.9712Z" fill="white"/>
</g>
<defs>
<clipPath id="clip0_3_1920">
<rect width="34" height="34" rx="17" fill="white"/>
</clipPath>
</defs>
</svg>
