<svg width="100" height="100" viewBox="0 0 100 100" fill="none" xmlns="http://www.w3.org/2000/svg">
<g clip-path="url(#clip0_2_1853)">
<rect width="100" height="100" rx="50" fill="#0A0B09"/>
<path d="M40.0201 96.9742C40.0201 98.3039 38.4375 100.07 35.9375 99.6094V100L67.9688 100.005V99.393C65.4313 99.8859 64.8076 98.318 64.8076 96.975C64.8076 95.3273 64.8701 89.9156 64.8701 83.2047C64.8701 78.5203 63.2701 75.4586 61.4764 73.9086C72.6139 72.6664 84.3045 68.4211 84.3045 49.1391C84.3045 43.6578 82.3701 39.1781 79.1639 35.6672C79.6795 34.3969 81.3951 29.2953 78.667 22.3836C78.667 22.3836 74.4764 21.0344 64.9326 27.5289C60.9389 26.4148 56.6608 25.8594 52.4139 25.8375C48.1608 25.8602 43.8858 26.4148 39.8951 27.5289C30.3451 21.0344 26.1451 22.3836 26.1451 22.3836C23.4264 29.2953 25.142 34.3969 25.6576 35.6672C22.4576 39.1781 20.5108 43.6578 20.5108 49.1391C20.5108 68.3742 32.1826 72.6789 43.2858 73.9461C41.8576 75.2008 40.5639 77.4133 40.1108 80.657C37.2608 81.9438 30.0201 84.1586 25.5576 76.4875C25.5576 76.4875 22.917 71.6688 17.9014 71.3141C17.9014 71.3141 13.017 71.2508 17.5576 74.3664C17.5576 74.3664 20.8358 75.9102 23.1076 81.7078C23.1076 81.7078 26.042 91.4711 39.9514 88.4375C39.9764 92.6258 40.0201 95.782 40.0201 96.9742Z" fill="white"/>
</g>
<defs>
<clipPath id="clip0_2_1853">
<rect width="100" height="100" rx="50" fill="white"/>
</clipPath>
</defs>
</svg>
